PathFileType	4	(X/Y/Z)	D:/ViconDB/Teaching_2017/Workshops/171025_A1_Demo01/Demo/171025_Guy_ROM_body_01.trc
DataRate	CameraRate	NumFrames	NumMarkers	Units	OrigDataRate	OrigDataStartFrame	OrigNumFrames
120.000000	120.000000	4	130	mm	120.000000	31	120
Frame#	Time	System			Vantage_5_2106396			Vantage_5_2106443			Vantage_5_2106435			Vantage_5_2106735			Vantage_5_2106428			Vantage_5_2106437			Vantage_5_2106434			Vantage_5_2106460			Vantage_5_2106228			Vantage_5_2106436			Vantage_5_2106467			Unlabeled_Markers			Labeling			Hips			Spine			Head			Head_End			LeftShoulder			LeftArm			LeftForeArm			LeftHand			LeftHandThumbEnd			LeftHandEnd			RightShoulder			RightArm			RightForeArm			RightHand			RightHandThumbEnd			RightHandEnd			LeftUpLeg			LeftLeg			LeftFoot			LeftToeBase			LeftToeEnd			RightUpLeg			RightLeg			RightFoot			RightToeBase			RightToeEnd			ARIEL			LFHD			RFHD			LBHD			RBHD			C7			T10			CLAV			STRN			LBSH			LFSH			LUPA			LELB			LIEL			LWRE			LOWR			LIWR			LOHAND			LIHAND			RBSH			RFSH			RUPA			RELB			RIEL			RWRE			ROWR			RIWR			ROHAND			RIHAND			LFWT			LMWT			LBWT			LHIP			LKNE			LKNI			LSHN			LANK			LHEL			LMT5			LMT1			LTOE			RFWT			RMWT			RBWT			RHIP			RKNE			RKNI			RSHN			RANK			RHEL			RMT5			RMT1			RTOE			Solving			Hips			Spine			Spine1			Spine2			Spine3			Neck			Head			HeadEnd			RightShoulder			RightArm			RightForeArm			RightForeArmRoll			RightHand			RightHandEnd			R_FingersEnd			RightHandThumb1			RightHandThumb2			LeftShoulder			LeftArm			LeftForeArm			LeftForeArmRoll			LeftHand			LeftHandEnd			L_FingersEnd			LeftHandThumb1			LeftHandThumb2			RightUpLeg			RightLeg			RightFoot			RightToeBase			RightToeBaseEnd			LeftUpLeg			LeftLeg			LeftFoot			LeftToeBase			LeftToeBaseEnd			
		X0	Y0	Z0	X1	Y1	Z1	X2	Y2	Z2	X3	Y3	Z3	X4	Y4	Z4	X5	Y5	Z5	X6	Y6	Z6	X7	Y7	Z7	X8	Y8	Z8	X9	Y9	Z9	X10	Y10	Z10	X11	Y11	Z11	X12	Y12	Z12	X13	Y13	Z13	X14	Y14	Z14	X15	Y15	Z15	X16	Y16	Z16	X17	Y17	Z17	X18	Y18	Z18	X19	Y19	Z19	X20	Y20	Z20	X21	Y21	Z21	X22	Y22	Z22	X23	Y23	Z23	X24	Y24	Z24	X25	Y25	Z25	X26	Y26	Z26	X27	Y27	Z27	X28	Y28	Z28	X29	Y29	Z29	X30	Y30	Z30	X31	Y31	Z31	X32	Y32	Z32	X33	Y33	Z33	X34	Y34	Z34	X35	Y35	Z35	X36	Y36	Z36	X37	Y37	Z37	X38	Y38	Z38	X39	Y39	Z39	X40	Y40	Z40	X41	Y41	Z41	X42	Y42	Z42	X43	Y43	Z43	X44	Y44	Z44	X45	Y45	Z45	X46	Y46	Z46	X47	Y47	Z47	X48	Y48	Z48	X49	Y49	Z49	X50	Y50	Z50	X51	Y51	Z51	X52	Y52	Z52	X53	Y53	Z53	X54	Y54	Z54	X55	Y55	Z55	X56	Y56	Z56	X57	Y57	Z57	X58	Y58	Z58	X59	Y59	Z59	X60	Y60	Z60	X61	Y61	Z61	X62	Y62	Z62	X63	Y63	Z63	X64	Y64	Z64	X65	Y65	Z65	X66	Y66	Z66	X67	Y67	Z67	X68	Y68	Z68	X69	Y69	Z69	X70	Y70	Z70	X71	Y71	Z71	X72	Y72	Z72	X73	Y73	Z73	X74	Y74	Z74	X75	Y75	Z75	X76	Y76	Z76	X77	Y77	Z77	X78	Y78	Z78	X79	Y79	Z79	X80	Y80	Z80	X81	Y81	Z81	X82	Y82	Z82	X83	Y83	Z83	X84	Y84	Z84	X85	Y85	Z85	X86	Y86	Z86	X87	Y87	Z87	X88	Y88	Z88	X89	Y89	Z89	X90	Y90	Z90	X91	Y91	Z91	X92	Y92	Z92	X93	Y93	Z93	X94	Y94	Z94	X95	Y95	Z95	X96	Y96	Z96	X97	Y97	Z97	X98	Y98	Z98	X99	Y99	Z99	X100	Y100	Z100	X101	Y101	Z101	X102	Y102	Z102	X103	Y103	Z103	X104	Y104	Z104	X105	Y105	Z105	X106	Y106	Z106	X107	Y107	Z107	X108	Y108	Z108	X109	Y109	Z109	X110	Y110	Z110	X111	Y111	Z111	X112	Y112	Z112	X113	Y113	Z113	X114	Y114	Z114	X115	Y115	Z115	X116	Y116	Z116	X117	Y117	Z117	X118	Y118	Z118	X119	Y119	Z119	X120	Y120	Z120	X121	Y121	Z121	X122	Y122	Z122	X123	Y123	Z123	X124	Y124	Z124	X125	Y125	Z125	X126	Y126	Z126	X127	Y127	Z127	X128	Y128	Z128	X129	Y129	Z129	
31	0.258333																																											-6.073784	970.987305	-12.493548																																																																												-34.365211	1843.090210	-22.453554	26.409443	1794.841309	69.382782	-100.735329	1789.617432	49.747829	66.331787	1733.642944	-46.649345	-89.709221	1716.446167	-79.276924	-6.823280	1552.946777	-103.067841	-0.296565	1374.334229	-131.621078	-10.401871	1484.609131	72.920395	-4.368184	1348.256592	116.306793	143.330383	1500.853516	-113.519760	127.089966	1507.032471	26.179226	238.324066	1356.221558	-34.246555	263.253265	1168.520752	-7.999215	237.674210	1221.058594	-67.577126	260.352539	1055.099976	53.865002	263.261780	927.031921	38.272869	209.151566	934.121887	102.695770	275.720825	873.054260	96.395592	256.178162	888.550110	122.285561	-169.002457	1501.052979	-112.233856	-156.378021	1508.896118	5.732436	-258.565033	1362.350952	-53.553978	-294.990387	1168.256470	-53.814892	-240.818512	1207.969238	-108.090042	-304.769867	1049.240601	-13.317639	-288.964630	920.566223	-11.575613	-263.109436	945.966675	62.503620	-310.433777	867.232361	44.290005	-300.046722	873.719238	83.956055	118.522057	1090.136963	90.175316	185.227570	981.723572	-18.351017	118.670677	1171.496826	-96.067886	183.369568	662.634399	-14.998676	175.568436	549.334717	-13.054856	113.482208	629.696289	50.236294	196.120697	332.892761	-93.375031	179.506500	124.487785	-134.892471	129.175110	68.246468	-191.295258	208.014877	79.469955	42.603439	126.811737	85.678406	51.732632	163.505936	83.685890	96.354401	-141.463760	1093.368164	90.071129	-201.539886	1011.548523	-60.906185	-116.437607	1157.037598	-112.943787	-136.322723	753.182007	67.951729	-185.816513	565.694519	-18.936550	-161.279907	650.298889	44.233894	-199.006439	413.030518	-91.880341	-179.050034	127.546478	-146.320114	-116.903969	75.917351	-194.142075	-204.347717	76.814774	27.219082	-124.386917	76.041412	43.056458	-178.358978	79.135437	83.034050				-5.649743	970.559387	-19.900448																																																																																																																																				
32	0.266667																																											-5.925171	971.050659	-12.563148																																																																												-34.354843	1843.138550	-22.157015	26.392651	1794.856812	69.634743	-100.733109	1789.694092	50.030304	66.376236	1733.818848	-46.312210	-89.666084	1716.498535	-79.060631	-6.777250	1552.983032	-102.861717	-0.291172	1374.364746	-131.424820	-10.641926	1484.392944	73.002151	-4.347705	1348.317383	116.498917	143.341843	1500.886597	-113.355385	127.242371	1507.216309	26.452568	238.298401	1356.234375	-34.087288	263.233185	1168.518677	-7.859403	237.662186	1221.092529	-67.406448	260.319397	1055.099243	54.003510	263.212708	927.035278	38.395988	209.103806	934.170349	102.852570	275.664124	873.034363	96.488609	256.150299	888.587158	122.403114	-168.956604	1501.094238	-111.998039	-156.339111	1508.998779	5.952476	-258.348755	1362.744507	-53.250996	-294.953033	1168.307495	-53.620281	-240.766907	1207.983643	-107.881683	-304.747192	1049.307251	-13.075451	-288.891815	920.578003	-11.294866	-263.132141	946.075745	62.736397	-310.398743	867.287109	44.536095	-300.131073	873.891479	84.305969	118.483231	1090.154053	90.217598	185.289841	981.706543	-18.277367	118.725502	1171.508301	-95.926605	183.396332	662.642517	-15.010919	175.558975	549.333191	-13.084056	113.509827	629.717407	50.245064	196.073914	332.883423	-93.385490	179.461624	124.495110	-134.919983	129.181656	68.301445	-191.286270	208.001419	79.477814	42.599407	126.798584	85.711357	51.743675	163.525284	83.690292	96.402756	-141.462372	1093.467041	90.190651	-201.476425	1011.605713	-60.848927	-116.413460	1157.042480	-112.738693	-136.291031	753.185364	68.016197	-185.785248	565.764343	-18.874794	-161.274857	650.346802	44.289276	-198.647919	412.968353	-92.068039	-179.062576	127.583931	-146.317215	-116.909012	75.965340	-194.106750	-204.362122	76.875290	27.224525	-124.403809	76.108742	43.034279	-178.369720	79.202194	83.056267				-5.660461	970.599731	-19.759819																																																																																																																																				
33	0.275000																																											-5.925238	970.995178	-12.465337																																																																												-34.371639	1843.114624	-21.899792	26.366850	1794.813354	69.859245	-100.744331	1789.670898	50.249352	66.383698	1733.534912	-46.443455	-89.678101	1716.450562	-78.824188	-6.735525	1552.942261	-102.692383	-0.267768	1374.319580	-131.290787	-10.401615	1484.648193	73.299652	-4.325263	1348.282715	116.651505	143.327896	1500.873657	-113.230957	126.640854	1506.594604	26.282324	238.264313	1356.186035	-33.965038	263.195190	1168.472778	-7.721968	237.622681	1221.038208	-67.304718	260.215759	1055.041138	54.101856	263.160461	927.005859	38.512733	209.057098	934.192688	102.971786	275.600067	872.966675	96.543983	256.210510	888.570068	122.585579	-168.936554	1501.046509	-111.815628	-156.353271	1508.965088	6.114126	-258.567139	1362.398804	-53.213806	-294.850800	1168.180786	-53.390469	-240.728516	1207.910278	-107.686775	-304.691010	1049.286377	-12.834448	-288.840179	920.517090	-11.055699	-263.102203	946.076355	62.911900	-310.348236	867.236877	44.783352	-299.910828	873.821716	84.458916	118.508499	1090.173096	90.289658	185.331665	981.674316	-18.219507	118.747787	1171.466797	-95.818489	183.415314	662.615295	-15.043784	175.582001	549.288574	-13.098631	113.542191	629.731567	50.244041	196.073120	332.859222	-93.413994	179.410263	124.472954	-134.901077	129.167618	68.242203	-191.282349	207.966049	79.419731	42.593403	126.773170	85.668655	51.748806	163.485077	83.654411	96.390938	-141.417465	1093.395996	90.283920	-201.413269	1011.507324	-60.767876	-116.379387	1157.014771	-112.653679	-136.198074	753.188904	68.097755	-185.745056	565.709839	-18.820107	-161.211639	650.328857	44.353958	-198.557220	412.877472	-92.098778	-179.036118	127.542656	-146.276993	-116.899788	75.936516	-194.143234	-204.387772	76.859352	27.238905	-124.415710	76.067154	43.028809	-178.428650	79.145622	83.039589				-5.622509	970.561768	-19.679554																																																																																																																																				
34	0.283333																																											-5.897238	970.925537	-12.336987																																																																												-34.357796	1843.036255	-21.671717	26.388971	1794.739014	70.076408	-100.751060	1789.583130	50.463451	66.298416	1733.565430	-46.057446	-89.652863	1716.378052	-78.631805	-6.723808	1552.877686	-102.537331	-0.243955	1374.268677	-131.184570	-10.788263	1484.163940	73.260162	-4.304698	1348.194092	116.803642	143.359314	1500.843994	-113.126869	126.558029	1506.500610	26.373100	238.258148	1356.117920	-33.814808	263.190460	1168.395020	-7.560178	237.610046	1220.964600	-67.204987	260.232849	1054.963867	54.233170	263.108032	926.921082	38.616245	209.049866	934.174194	103.121552	275.543274	872.868530	96.635735	256.156647	888.501465	122.694054	-168.914627	1500.957642	-111.673225	-156.316223	1508.868408	6.274055	-258.314484	1362.511108	-52.905174	-294.797058	1168.089233	-53.201015	-240.692657	1207.821411	-107.535652	-304.613129	1049.180908	-12.612270	-288.755127	920.406189	-10.849209	-263.049072	945.980408	63.073215	-310.234009	867.110046	44.965805	-299.867737	873.788269	84.693222	118.597916	1090.152588	90.400948	185.335175	981.600159	-18.158022	118.777084	1171.432861	-95.761711	183.443787	662.527954	-15.032116	175.605057	549.220947	-13.109800	113.640556	629.689331	50.305126	196.053604	332.759888	-93.386177	179.437958	124.431717	-134.901642	129.144470	68.195366	-191.299103	207.952713	79.332779	42.595512	126.781555	85.608376	51.780361	163.463226	83.548981	96.379684	-141.332031	1093.321655	90.399178	-200.832764	1011.534424	-59.493687	-116.330521	1156.940308	-112.591118	-136.147751	753.098328	68.139381	-185.692841	565.630371	-18.799500	-161.134674	650.277893	44.363850	-198.864563	412.906616	-91.810791	-179.006866	127.439194	-146.267776	-116.365395	76.018211	-194.499847	-204.407761	76.790810	27.235348	-124.422195	75.996178	43.025414	-178.422119	79.054390	83.030571				-5.558229	970.519348	-19.554216																																																																																																																																				
